PathFileType  4	(X/Y/Z) C:\Users\antoi\Documents\MyRepositories\mobilecap\ResultsAnalysis
DataRate	CameraRate	NumFrames	NumMarkers	Units	OrigDataRate	OrigDataStartFrame	OrigNumFrames
100.0	100.0	5	51	mm	100.0	1	256
Frame#	Time	r_knee			r_shank_antsup			r_ankle			r_calc			r_5meta			r_toe			L_knee			L_shank_antsup			L_ankle			L_calc			L_5meta			L_toe			r_sh2			r_sh3			r_sh4			L_sh2			L_sh3			r_thigh1			r_thigh2			r_thigh3			r_thigh4			r_thigh5			L_thigh1			L_thigh2			L_thigh3			L_thigh4			r.ASIS			r.PSIS			L.ASIS			L.PSIS			C7			R_Shoulder			L_Shoulder			R_Sternum			L_Sternum			R_humerus			R_elbow_med			R_elbow_lat			R_forearm			R_wrist_radius			R_wrist_ulna			L_humerus			L_elbow_med			L_elbow_lat			L_forearm			L_wrist_radius			L_wrist_ulna			R_HJC			L_HJC			R_HJC_reg			L_HJC_reg			
		X1	Y1	Z1	X2	Y2	Z2	X3	Y3	Z3	X4	Y4	Z4	X5	Y5	Z5	X6	Y6	Z6	X7	Y7	Z7	X8	Y8	Z8	X9	Y9	Z9	X10	Y10	Z10	X11	Y11	Z11	X12	Y12	Z12	X13	Y13	Z13	X14	Y14	Z14	X15	Y15	Z15	X16	Y16	Z16	X17	Y17	Z17	X18	Y18	Z18	X19	Y19	Z19	X20	Y20	Z20	X21	Y21	Z21	X22	Y22	Z22	X23	Y23	Z23	X24	Y24	Z24	X25	Y25	Z25	X26	Y26	Z26	X27	Y27	Z27	X28	Y28	Z28	X29	Y29	Z29	X30	Y30	Z30	X31	Y31	Z31	X32	Y32	Z32	X33	Y33	Z33	X34	Y34	Z34	X35	Y35	Z35	X36	Y36	Z36	X37	Y37	Z37	X38	Y38	Z38	X39	Y39	Z39	X40	Y40	Z40	X41	Y41	Z41	X42	Y42	Z42	X43	Y43	Z43	X44	Y44	Z44	X45	Y45	Z45	X46	Y46	Z46	X47	Y47	Z47	X48	Y48	Z48	X49	Y49	Z49	X50	Y50	Z50	X51	Y51	Z51	

1	0.00000000	-1185.71284	908.83606	-408.50627	-1245.77794	765.02183	-373.06211	-1308.00159	409.96610	-411.05505	-1366.75548	381.67470	-475.17633	-1175.25134	348.32532	-379.86226	-1136.38733	374.94393	-430.53332	-1185.29398	901.24227	-749.43722	-1176.96949	696.47135	-729.83636	-1323.66806	421.74939	-726.53178	-1376.92800	385.00748	-657.34208	-1191.62292	343.23587	-776.97747	-1144.78187	374.54027	-723.89898	-1272.80093	658.08574	-366.90490	-1182.81437	754.92681	-412.28000	-1206.54377	644.16110	-417.39197	-1244.93734	722.26256	-781.11829	-1282.64995	610.01056	-762.33422	-1153.36028	1202.80225	-383.75080	-1134.10155	1091.79258	-386.81042	-1194.08305	1059.66544	-375.37305	-1262.80088	1186.85713	-405.05043	-1245.67157	1069.72894	-395.51066	-1247.46663	1196.95812	-767.84670	-1239.31733	1058.92127	-771.07612	-1137.14963	1198.76898	-766.31223	-1131.42931	1063.37897	-758.52657	-1105.77491	1473.64640	-446.33550	-1294.44743	1520.90714	-526.38431	-1131.25550	1462.37185	-723.74081	-1300.74043	1522.72428	-623.59151	-1147.68198	1999.06733	-597.69108	-1078.28063	1945.41745	-427.50256	-1106.70113	1959.00209	-772.23196	-1027.69217	1886.29372	-574.80234	-1029.86908	1887.77840	-628.95522	-1179.13835	1712.83529	-328.35188	-1307.19829	1621.05019	-352.71591	-1280.49515	1653.42316	-274.91951	-1118.47415	1510.74237	-298.06098	-1053.25505	1453.51283	-319.08192	-1069.62641	1435.77494	-289.71843	-1216.54682	1712.77835	-870.96129	-1342.08078	1673.93765	-845.98595	-1300.62100	1671.52742	-922.19148	-1156.51009	1527.30955	-871.34895	-1107.18247	1482.78321	-838.59992	-1121.76349	1468.29960	-864.95698	-1197.85525	1386.43724	-478.48788	-1218.08820	1383.27220	-674.89960	-1188.07308	1387.65969	-482.50757	-1199.95849	1391.09166	-666.10000	
2	0.01000000	-1183.43325	908.17714	-408.64204	-1243.93912	764.83062	-372.94044	-1307.90468	410.05442	-411.01311	-1366.74520	381.72173	-475.15052	-1175.24163	348.35929	-379.86150	-1136.33266	374.86875	-430.54750	-1183.86511	900.71683	-749.41850	-1175.93550	695.97567	-729.87886	-1323.50307	421.72508	-726.52321	-1376.90241	384.96415	-657.21656	-1191.42961	343.52558	-777.36942	-1144.70732	374.43474	-723.62581	-1271.45325	657.94043	-366.85426	-1180.99695	754.35367	-412.28627	-1205.47795	643.88107	-417.51835	-1244.00289	721.80226	-780.75159	-1281.75395	609.93133	-762.42116	-1152.46545	1202.37925	-383.78997	-1133.01804	1091.65737	-386.57719	-1192.52826	1059.13423	-375.39508	-1262.05390	1186.02546	-404.42283	-1244.24371	1069.09903	-395.09464	-1246.68323	1196.02466	-767.67744	-1238.04225	1058.34391	-771.55853	-1136.49653	1198.16552	-765.81865	-1130.20597	1062.93614	-758.36031	-1108.73272	1473.49907	-448.33412	-1296.26974	1521.29299	-530.69063	-1130.90206	1461.50962	-723.68215	-1300.36666	1522.73771	-624.11469	-1144.01857	1998.03003	-598.89179	-1074.89978	1944.05678	-428.59833	-1102.83329	1957.46017	-773.11057	-1024.76222	1884.50352	-575.24073	-1026.68636	1885.62703	-629.28269	-1177.21703	1712.98739	-327.86570	-1306.04235	1621.81831	-351.24233	-1279.07679	1654.36591	-273.83896	-1116.49323	1512.69772	-298.17609	-1050.78390	1455.98398	-319.93819	-1067.07491	1437.95589	-290.47771	-1215.51090	1712.41341	-871.41428	-1341.69479	1675.81000	-847.73189	-1299.93981	1673.34920	-923.97376	-1155.59898	1529.83899	-871.44311	-1106.26104	1485.99164	-838.37725	-1120.62025	1471.22301	-864.81242	-1200.38510	1386.51382	-479.79757	-1218.62928	1382.91073	-676.39423	-1191.54058	1388.39605	-485.45137	-1199.50653	1391.21070	-667.73865	
3	0.02000000	-1181.11594	907.67440	-408.75826	-1241.99705	764.56923	-372.89666	-1307.75189	410.14598	-410.94149	-1366.66640	381.80708	-475.20831	-1175.21763	348.38315	-379.85951	-1136.28221	374.81029	-430.58324	-1182.51300	900.28722	-749.40812	-1175.10815	695.58088	-729.77909	-1323.35229	421.71282	-726.47902	-1376.92058	384.91972	-657.06822	-1191.18454	343.89725	-778.03238	-1144.59880	374.44269	-723.45272	-1270.07738	657.52740	-366.95432	-1179.14502	753.80723	-412.33782	-1204.21166	643.73150	-417.80224	-1243.10668	721.52935	-780.65542	-1281.09103	609.75550	-762.42795	-1151.86556	1201.97539	-383.65975	-1131.74783	1091.39851	-386.59115	-1190.93552	1058.53168	-375.24637	-1261.31665	1184.98437	-404.07819	-1242.76009	1068.30402	-394.81755	-1245.92476	1195.34512	-767.99400	-1236.90833	1057.69134	-771.82560	-1135.88014	1197.73560	-765.47724	-1129.08714	1062.55656	-758.10912	-1109.98370	1472.81227	-448.92599	-1296.75485	1521.48191	-532.49221	-1130.52105	1460.39775	-723.58633	-1300.01427	1522.73762	-624.70555	-1140.27567	1996.95238	-600.01786	-1071.43752	1942.90521	-429.43456	-1098.83334	1955.73921	-773.97724	-1021.72420	1882.70054	-575.80325	-1023.57670	1883.61282	-629.79390	-1175.18009	1713.07474	-327.48316	-1304.68936	1622.58534	-349.90923	-1277.32034	1655.35991	-272.74413	-1114.13478	1514.54890	-298.29526	-1048.20834	1458.45310	-320.60356	-1064.24913	1440.24162	-291.10223	-1214.30174	1712.90798	-872.96282	-1341.15974	1677.69170	-849.51366	-1299.03709	1675.13630	-925.74670	-1154.63609	1532.31794	-871.69854	-1105.25978	1489.09608	-837.96370	-1119.45267	1474.03208	-864.62386	-1201.80776	1386.26099	-480.26426	-1218.98588	1382.38182	-676.95589	-1193.14647	1388.31848	-486.37864	-1199.59551	1390.79855	-668.21897	
4	0.03000000	-1178.73101	907.26823	-408.76904	-1239.94953	764.33666	-372.85589	-1307.65415	410.24301	-410.89467	-1366.57536	381.89805	-475.29198	-1175.15934	348.48387	-379.91757	-1136.24782	374.75887	-430.63894	-1181.15968	899.99629	-749.47634	-1174.43818	695.22854	-729.59790	-1323.24726	421.69936	-726.41007	-1376.95419	384.87785	-656.99329	-1191.04545	344.13187	-778.44603	-1144.50660	374.51643	-723.38296	-1268.66504	657.26603	-367.12055	-1177.28092	753.25914	-412.46560	-1202.85821	643.47513	-418.00850	-1242.23076	721.35241	-780.79763	-1280.58053	609.51195	-762.28691	-1151.06568	1202.11540	-383.36043	-1130.32555	1090.98222	-386.83204	-1189.31489	1057.86406	-375.16027	-1260.52477	1183.85250	-403.87776	-1241.22711	1067.34608	-394.63555	-1245.25483	1194.80437	-768.54958	-1235.88205	1057.02014	-772.03972	-1135.30493	1197.48309	-765.27401	-1128.08057	1062.21891	-757.80218	-1110.17178	1471.78886	-448.53601	-1296.44509	1521.54486	-532.62991	-1130.14929	1459.23334	-723.47159	-1299.66303	1522.77523	-625.26899	-1136.44254	1995.77289	-601.09400	-1067.93804	1941.81844	-430.17363	-1094.59496	1953.92904	-774.86111	-1018.61277	1880.76348	-576.46716	-1020.41317	1881.66055	-630.48843	-1172.95292	1713.15265	-327.12716	-1303.10868	1623.31139	-348.75007	-1275.12099	1656.38986	-271.59529	-1111.52405	1516.40922	-298.38599	-1045.50098	1460.84372	-321.19375	-1061.10859	1442.57064	-291.57372	-1212.80581	1713.42011	-874.70943	-1340.39742	1679.52355	-851.26627	-1297.98058	1676.18492	-926.77194	-1153.48690	1534.65240	-872.10480	-1104.08020	1492.02660	-837.75405	-1118.14165	1476.68727	-864.53374	-1202.53658	1385.79863	-480.18673	-1219.22891	1381.82527	-676.91673	-1193.64039	1387.67305	-486.05248	-1199.96648	1390.09095	-668.05174	
5	0.04000000	-1176.29645	906.85330	-408.62306	-1237.91979	764.18125	-372.87554	-1307.65274	410.39797	-410.91971	-1366.52342	381.96721	-475.32087	-1175.08266	348.65578	-380.03256	-1136.20525	374.70266	-430.71454	-1179.86259	899.75228	-749.49238	-1173.73491	694.83225	-729.42559	-1323.17704	421.68536	-726.36286	-1376.98822	384.84861	-657.02997	-1191.06525	344.14349	-778.35473	-1144.46662	374.55911	-723.33630	-1267.21629	657.41369	-367.23682	-1175.42201	752.69908	-412.58263	-1201.56344	643.05412	-418.02777	-1241.33077	721.11971	-780.96599	-1280.03550	609.27309	-762.06312	-1149.85887	1202.46588	-383.19338	-1128.83520	1090.60453	-387.16576	-1187.65973	1057.17971	-375.25152	-1259.70120	1182.79318	-403.58865	-1239.73191	1066.32038	-394.41849	-1244.69954	1194.18625	-768.79469	-1234.90020	1056.39409	-772.25690	-1134.73352	1197.26939	-765.08335	-1127.13562	1061.90401	-757.43556	-1110.52958	1470.80493	-448.21192	-1296.28118	1521.64531	-532.85833	-1129.81462	1458.16508	-723.39058	-1299.28741	1522.88401	-625.70036	-1132.51247	1994.50883	-602.22094	-1064.39609	1940.61900	-431.08265	-1090.14886	1952.13908	-775.83599	-1015.36873	1878.76181	-577.21670	-1017.09488	1879.65956	-631.24287	-1170.47474	1713.24291	-326.72941	-1301.32008	1623.96389	-347.65010	-1272.70350	1657.43254	-270.38968	-1108.84821	1518.36159	-298.50845	-1042.64734	1463.08493	-321.86706	-1057.75413	1444.83353	-291.95200	-1211.03951	1713.41889	-876.00814	-1339.38436	1681.20470	-853.05014	-1296.80085	1676.51357	-927.15530	-1152.07248	1536.83693	-872.51686	-1102.71361	1494.76799	-837.83900	-1116.65879	1479.20883	-864.44041	-1203.36763	1385.36669	-480.16400	-1219.53292	1381.36653	-676.93618	-1194.37057	1387.04177	-485.94891	-1200.26204	1389.47068	-668.09037	
